<svg width="18" height="18" viewBox="0 0 18 18" fill="none" xmlns="http://www.w3.org/2000/svg">
<g clip-path="url(#clip0_114_117)">
<path d="M13.65 9.86719C15.7484 9.86719 17.4555 11.5696 17.4555 13.6624C17.4555 15.7551 15.7484 17.4575 13.65 17.4575C11.5515 17.4575 9.84448 15.7551 9.84448 13.6624C9.84448 11.5696 11.5515 9.86719 13.65 9.86719Z" stroke="#FF3737" stroke-width="1.20809" stroke-miterlimit="10" stroke-linecap="round" stroke-linejoin="round"/>
<path d="M15.1727 14.5466L13.6505 13.9177V11.9062" stroke="#FF3737" stroke-width="1.20809" stroke-miterlimit="10" stroke-linecap="round" stroke-linejoin="round"/>
<path d="M15.4281 8.04028V3.41016H1.96753V15.7228C1.96753 16.3192 2.45681 16.8071 3.05481 16.8071H8.57278" stroke="#FF3737" stroke-width="1.20809" stroke-miterlimit="10" stroke-linecap="round" stroke-linejoin="round"/>
<path d="M0.543701 3.41016H16.853" stroke="#FF3737" stroke-width="1.20809" stroke-miterlimit="10" stroke-linecap="round" stroke-linejoin="round"/>
<path d="M5.09351 3.41006V0.541992H12.3022V3.41006" stroke="#FF3737" stroke-width="1.20809" stroke-miterlimit="10" stroke-linecap="round" stroke-linejoin="round"/>
<path d="M6.54492 13.9396V6.28418" stroke="#FF3737" stroke-width="1.20809" stroke-miterlimit="10" stroke-linecap="round" stroke-linejoin="round"/>
<path d="M10.8516 8.28478V6.28418" stroke="#FF3737" stroke-width="1.20809" stroke-miterlimit="10" stroke-linecap="round" stroke-linejoin="round"/>
</g>
<defs>
<clipPath id="clip0_114_117">
<rect width="18" height="18" fill="white"/>
</clipPath>
</defs>
</svg>
