<svg width="20" height="22" viewBox="0 0 20 22" fill="none" xmlns="http://www.w3.org/2000/svg">
<g clip-path="url(#clip0_114_76)">
<path d="M18.5929 11.0004C18.5929 10.3986 18.5293 9.80981 18.4146 9.24687C18.3255 8.79393 18.5102 8.33452 18.8731 8.06276C19.357 7.7004 19.4971 7.02746 19.1978 6.49687L18.4337 5.15099C18.1345 4.6204 17.485 4.40687 16.9374 4.65923H16.931C16.5108 4.84687 16.0269 4.7757 15.683 4.46511C14.8298 3.69511 13.8174 3.09981 12.7095 2.72452C12.2765 2.5757 11.9708 2.18746 11.9263 1.72805V1.72158C11.869 1.10687 11.3659 0.647461 10.7674 0.647461H9.23922C8.64068 0.647461 8.13129 1.10687 8.06762 1.71511V1.72158C8.01668 2.18099 7.71104 2.5757 7.28443 2.71805C6.17013 3.09981 5.16408 3.69511 4.30448 4.46511C3.96064 4.7757 3.47672 4.84687 3.05647 4.65923H3.05011C2.50251 4.40687 1.8594 4.6204 1.56013 5.15099L0.796047 6.49687C0.496779 7.02746 0.636862 7.7004 1.12078 8.06276C1.48373 8.33452 1.67475 8.79393 1.57924 9.24687C1.46462 9.80981 1.40095 10.3986 1.40095 11.0004C1.40095 11.6022 1.46462 12.191 1.57924 12.7604C1.66838 13.2133 1.48373 13.6728 1.12078 13.9445C0.636862 14.3004 0.496779 14.9733 0.796047 15.5039L1.56013 16.8498C1.8594 17.3804 2.50888 17.5939 3.05647 17.3416H3.06284C3.48309 17.1539 3.96701 17.2251 4.31085 17.5357C5.16408 18.3057 6.1765 18.901 7.28443 19.2763C7.71741 19.4251 8.02305 19.8133 8.06762 20.2728V20.2792C8.13129 20.8875 8.63432 21.3469 9.23922 21.3469H10.7674C11.3659 21.3469 11.8753 20.8875 11.939 20.2792V20.2728C11.9899 19.8133 12.2956 19.4186 12.7222 19.2698C13.8301 18.8945 14.8362 18.2992 15.6958 17.5292C16.0396 17.2186 16.5235 17.1475 16.9438 17.3351H16.9501C17.4977 17.581 18.1472 17.3675 18.4465 16.8433L19.2106 15.4975C19.5098 14.9669 19.3698 14.2939 18.8858 13.9316C18.5229 13.6598 18.3319 13.2004 18.4274 12.7475C18.5356 12.191 18.5929 11.6022 18.5929 11.0004Z" stroke="white" stroke-width="0.823529" stroke-miterlimit="10" stroke-linecap="round" stroke-linejoin="round"/>
<path d="M9.99624 15.5295C12.4579 15.5295 14.4534 13.5016 14.4534 11.0001C14.4534 8.49859 12.4579 6.4707 9.99624 6.4707C7.53461 6.4707 5.53906 8.49859 5.53906 11.0001C5.53906 13.5016 7.53461 15.5295 9.99624 15.5295Z" stroke="white" stroke-width="0.823529" stroke-miterlimit="10" stroke-linecap="round" stroke-linejoin="round"/>
</g>
<defs>
<clipPath id="clip0_114_76">
<rect width="20" height="22" fill="white"/>
</clipPath>
</defs>
</svg>
