<svg width="20" height="26" viewBox="0 0 20 26" fill="none" xmlns="http://www.w3.org/2000/svg">
<g clip-path="url(#clip0_127_57)">
<path d="M14.8007 6.29504C14.7304 6.17464 14.6483 6.05998 14.5545 5.94531C14.6366 6.05998 14.7245 6.17464 14.8007 6.29504Z" fill="#2CC065"/>
<path d="M15.3751 7.36129C15.211 7.0001 15.0293 6.65611 14.83 6.33505C14.8242 6.32359 14.8124 6.31212 14.8007 6.29492C15.0117 6.66185 15.1231 7.0689 15.1231 7.65942C15.1231 8.4506 14.8535 9.08698 14.2673 9.6603C13.6635 10.2451 12.9601 10.5432 12.1747 10.5432H11.0785H5.46893V13.2722V15.3132H12.1747C12.9601 15.3132 13.7163 15.21 14.4373 14.9979C14.7948 14.5163 15.1172 13.9774 15.3927 13.3353C15.7796 12.3664 15.973 11.3745 15.973 10.3884C15.9672 9.41378 15.7796 8.4334 15.3751 7.36129Z" fill="white"/>
<path d="M19.408 4.62668C18.9918 3.70937 18.476 2.94686 17.7784 2.21301L17.7374 2.17288C16.993 1.49636 16.2075 0.986108 15.2227 0.561852C14.1676 0.183462 13.1712 0 12.1747 0H5.46893L2.3388 2.729L0 4.77574H5.46893H12.1747C12.9543 4.77574 13.6635 5.0624 14.2497 5.59559C14.3669 5.71599 14.4666 5.83065 14.5545 5.94531C14.3142 5.60132 14.0504 5.2688 13.7456 4.94774C14.4431 5.68159 14.959 6.4441 15.3751 7.36141C15.7796 8.43925 15.973 9.41389 15.973 10.3943C15.973 11.3861 15.7796 12.3779 15.3927 13.3411C15.1172 13.9832 14.7948 14.5279 14.4373 15.0037C15.6213 14.6598 16.7116 14.0406 17.6964 13.1462C18.4056 12.5041 18.9683 11.6785 19.4314 10.6121C19.8183 9.64322 20.0117 8.65138 20.0117 7.66527C20 6.67916 19.8124 5.70452 19.408 4.62668Z" fill="#2CC065"/>
<path d="M5.46893 4.77539H0V26.0054H5.46893V4.77539Z" fill="white"/>
</g>
<defs>
<clipPath id="clip0_127_57">
<rect width="20" height="26" fill="white"/>
</clipPath>
</defs>
</svg>
