<svg width="20" height="24" viewBox="0 0 20 24" fill="none" xmlns="http://www.w3.org/2000/svg">
<path d="M6.42981 21.3693C7.55856 22.5813 8.85863 23.4333 10.3048 23.936C10.6777 23.9784 11.0506 24.0048 11.4235 24.0048C12.8344 24.0048 14.2504 23.6979 15.7621 23.0628C17.168 22.4542 18.3875 21.5969 19.486 20.4432L19.9899 19.9193L17.1076 16.8922L16.6037 17.4161C15.1675 18.9244 13.4845 19.6547 11.4638 19.6547C9.40789 19.6547 7.66942 18.9032 6.2736 17.4055C4.84251 15.9713 4.11184 14.1508 4.11184 11.9863C4.11184 10.3828 4.49985 9.00154 5.30106 7.79492C4.05138 9.52546 3.44165 11.5259 3.44165 13.8756C3.44165 16.871 4.44442 19.3901 6.42981 21.3693Z" fill="white"/>
<path d="M6.42983 21.3702C4.95843 19.899 4.02621 18.1261 3.64324 16.0833C3.51222 15.3795 3.44168 14.6439 3.44168 13.8765C3.44168 11.5268 4.0514 9.52634 5.29605 7.7905C5.57823 7.36713 5.90577 6.96492 6.28874 6.58389C6.33409 6.53097 6.38448 6.48863 6.43487 6.441C7.39733 5.45666 8.516 4.8163 9.77073 4.51465C8.89393 4.65754 8.02721 4.91156 7.15546 5.28731C5.72941 5.92766 4.4646 6.81674 3.39632 7.93868C2.29781 9.09238 1.48148 10.3731 0.901993 11.839C0.589572 12.6064 0.357776 13.3949 0.206604 14.1887C0.357776 14.9826 0.584533 15.7499 0.896954 16.4908C1.48652 18.0361 2.32805 19.3698 3.38625 20.4335C3.48703 20.5446 3.60293 20.6452 3.70875 20.751C4.68632 21.7248 5.83523 22.508 7.1605 23.0637C8.23885 23.5294 9.2769 23.8152 10.3049 23.9369C8.85362 23.4342 7.55858 22.5821 6.42983 21.3702Z" fill="white"/>
<path d="M19.4759 3.55105C18.3321 2.39735 17.1227 1.52944 15.7521 0.899669C14.3109 0.296362 12.8949 0 11.4235 0C9.96221 0 8.56639 0.296362 7.15042 0.904962C5.7294 1.54531 4.4646 2.4344 3.39632 3.56163C2.29781 4.71533 1.48148 5.99603 0.90199 7.46196C0.302343 8.9226 0 10.4467 0 11.9815C0 12.733 0.0705467 13.4686 0.206601 14.1883C0.357773 13.3945 0.589569 12.6112 0.90199 11.8386C1.47644 10.3727 2.29277 9.09724 3.39632 7.93826C4.4646 6.81632 5.7294 5.92194 7.15042 5.28159C8.02217 4.90584 8.88889 4.64653 9.76568 4.50893C10.3099 4.41896 10.8592 4.37663 11.4185 4.37663C12.0333 4.37663 12.6379 4.42955 13.2426 4.53539C14.4873 4.85821 15.5959 5.53032 16.5986 6.58346L17.1025 7.11268L17.7425 6.44057L19.1031 5.01169L20 4.07497L19.4759 3.55105Z" fill="#FB4040"/>
</svg>
