<svg width="12" height="12" viewBox="0 0 12 12" fill="none" xmlns="http://www.w3.org/2000/svg">
<path d="M10.9565 4.95652H9.98758C9.89175 4.58705 9.74587 4.23886 9.55741 3.9173L10.2421 3.23265C10.6499 2.82484 10.6499 2.16468 10.2421 1.75688C9.83425 1.34907 9.17409 1.34907 8.76628 1.75688L8.08163 2.44153C7.76007 2.25306 7.41189 2.10825 7.04241 2.01136V1.04348C7.04241 0.467436 6.57498 0 5.99894 0C5.42289 0 4.95546 0.467436 4.95546 1.04348V2.01136C4.58598 2.10825 4.2378 2.25306 3.91624 2.44153L3.23159 1.75688C2.82378 1.34907 2.16362 1.34907 1.75581 1.75688C1.348 2.16468 1.348 2.82484 1.75581 3.23265L2.44046 3.9173C2.252 4.23886 2.10719 4.58705 2.01029 4.95652H1.04348C0.467436 4.95652 0 5.42396 0 6C0 6.57604 0.467436 7.04348 1.04348 7.04348H2.01136C2.10825 7.41295 2.25306 7.76114 2.44153 8.0827L1.75688 8.76735C1.34907 9.17515 1.34907 9.83531 1.75688 10.2431C2.16468 10.6509 2.82484 10.6509 3.23265 10.2431L3.9173 9.55847C4.23886 9.74694 4.58705 9.89175 4.95652 9.98864V10.9576C4.95652 11.5336 5.42396 12.0011 6 12.0011C6.57604 12.0011 7.04348 11.5336 7.04348 10.9576V9.98864C7.41295 9.89175 7.76114 9.74694 8.0827 9.55847L8.76735 10.2431C9.17515 10.6509 9.83531 10.6509 10.2431 10.2431C10.6509 9.83531 10.6509 9.17515 10.2431 8.76735L9.55847 8.0827C9.74694 7.76114 9.89175 7.41295 9.98864 7.04348H10.9576C11.5336 7.04348 12.0011 6.57604 12.0011 6C12 5.42396 11.5336 4.95652 10.9565 4.95652ZM6 7.13611C5.37285 7.13611 4.86389 6.62715 4.86389 6C4.86389 5.37285 5.37285 4.86389 6 4.86389C6.62715 4.86389 7.13611 5.37285 7.13611 6C7.13611 6.62822 6.62822 7.13611 6 7.13611Z" fill="url(#paint0_linear_81_303)" fill-opacity="0.8"/>
<defs>
<linearGradient id="paint0_linear_81_303" x1="4.44963" y1="3.82933" x2="9.39567" y2="10.7538" gradientUnits="userSpaceOnUse">
<stop offset="0.016" stop-color="#009DFF"/>
<stop offset="0.9947" stop-color="#59C3FF"/>
</linearGradient>
</defs>
</svg>
